<svg xmlns="http://www.w3.org/2000/svg" viewBox="0 0 177.3 177.3">
	<g id="Layer_2" data-name="Layer 2">
		<g id="Layer_1-2" data-name="Layer 1">
			<path d="M49.25,94.47V83H63.93l12.54,2,.9-2.15L67.16,75.31,56.77,64.92l8.06-8.06L75.22,67.07l7.52,10.39,2.15-.9-2-12.72V49.34H94.38v14.5l-2,12.72,2.15.9,7.52-10.39,10.39-10.21,8.06,8.06L110.32,75.31,99.93,82.83l.9,2.15,12.54-2h14.68V94.47H113.37l-12.54-2-.9,2.15,10.39,7.52,10.21,10.39-8.06,8.06-10.39-10.39L94.56,99.84l-2.15.9,2,12.71V128H82.92V113.45l2-12.71-2.15-.9-7.52,10.39L64.83,120.62l-8.06-8.06,10.39-10.39,10.21-7.52-.9-2.15-12.54,2Z"/>
		</g>
	</g>
</svg>