<?xml version="1.0" encoding="UTF-8"?>
<svg id="Layer_2" data-name="Layer 2" xmlns="http://www.w3.org/2000/svg" viewBox="0 0 177.3 177.3">
  <defs>
    <style>
      .cls-1 {
        fill: #cdfe00;
      }
    </style>
  </defs>
  <g id="Layer_1-2" data-name="Layer 1">
    <g>
      <path class="cls-1" d="m58.2,177.3c-12.42,0-22.99-2.15-31.7-6.45-8.72-4.3-15.31-11.01-19.79-20.15-4.48-9.13-6.72-20.86-6.72-35.19v-53.73c0-14.33,2.24-26.06,6.72-35.19,4.48-9.13,11.07-15.85,19.79-20.15C35.22,2.15,45.79,0,58.2,0v15.76c-13.61.12-23.73,3.97-30.36,11.55-6.62,7.58-9.94,19.31-9.94,35.19v52.29c0,15.88,3.31,27.61,9.94,35.19,6.63,7.58,16.75,11.43,30.36,11.55v15.76Z"/>
      <path class="cls-1" d="m119.09,177.3v-15.76c13.85-.12,24.06-3.97,30.62-11.55,6.57-7.58,9.85-19.31,9.85-35.19v-52.29c0-15.88-3.28-27.61-9.85-35.19-6.57-7.58-16.77-11.43-30.62-11.55V0c12.54,0,23.13,2.15,31.79,6.45,8.66,4.3,15.22,11.01,19.7,20.15,4.48,9.13,6.72,20.86,6.72,35.19v53.73c0,14.33-2.24,26.06-6.72,35.19-4.48,9.13-11.04,15.85-19.7,20.15-8.66,4.3-19.25,6.45-31.79,6.45Z"/>
      <polygon class="cls-1" points="102.17 110.29 112.45 120.57 120.57 112.45 110.29 102.17 99.91 94.58 100.81 92.43 113.52 94.39 128.05 94.39 128.05 82.91 113.52 82.91 100.81 84.88 99.92 82.72 110.29 75.13 120.57 64.85 112.45 56.73 102.17 67.01 94.58 77.39 92.43 76.49 94.39 63.78 94.39 49.25 82.91 49.25 82.91 63.78 84.88 76.49 82.72 77.38 75.13 67 64.85 56.73 56.73 64.85 67.01 75.13 77.39 82.72 76.49 84.87 63.78 82.91 49.25 82.91 49.25 94.39 63.78 94.39 76.49 92.42 77.38 94.58 67.01 102.17 56.73 112.45 64.85 120.57 75.13 110.29 82.72 99.91 84.87 100.81 82.91 113.52 82.91 128.05 94.39 128.05 94.39 113.52 92.42 100.81 94.58 99.92 102.17 110.29"/>
    </g>
  </g>
</svg>