<svg xmlns="http://www.w3.org/2000/svg" viewBox="0 0 177.3 177.3"><g id="Layer_2" data-name="Layer 2"><g id="Layer_1-2" data-name="Layer 1"><path d="M58.2,177.3q-18.62,0-31.69-6.45A42.59,42.59,0,0,1,6.72,150.7Q0,137,0,115.51V61.78Q0,40.3,6.72,26.59A42.61,42.61,0,0,1,26.51,6.45Q39.57,0,58.2,0V15.76q-20.41.18-30.35,11.55T17.91,62.5v52.3q0,23.82,9.94,35.19T58.2,161.54Z"/><path d="M119.09,177.3V161.54q20.79-.18,30.63-11.55t9.85-35.19V62.5q0-23.82-9.85-35.19T119.09,15.76V0q18.81,0,31.79,6.45a42.7,42.7,0,0,1,19.7,20.14q6.72,13.71,6.72,35.19v53.73q0,21.49-6.72,35.19a42.68,42.68,0,0,1-19.7,20.15Q137.9,177.3,119.09,177.3Z"/><path d="M49.25,94.47V83H63.93l12.54,2,.9-2.15L67.16,75.31,56.77,64.92l8.06-8.06L75.22,67.07l7.52,10.39,2.15-.9-2-12.72V49.34H94.38v14.5l-2,12.72,2.15.9,7.52-10.39,10.39-10.21,8.06,8.06L110.32,75.31,99.93,82.83l.9,2.15,12.54-2h14.68V94.47H113.37l-12.54-2-.9,2.15,10.39,7.52,10.21,10.39-8.06,8.06-10.39-10.39L94.56,99.84l-2.15.9,2,12.71V128H82.92V113.45l2-12.71-2.15-.9-7.52,10.39L64.83,120.62l-8.06-8.06,10.39-10.39,10.21-7.52-.9-2.15-12.54,2Z"/></g></g></svg>