<svg xmlns="http://www.w3.org/2000/svg" viewBox="0 0 415.92 94.49"><defs><style>.cls-1{fill:#cdfe00;}</style></defs><g id="Layer_2" data-name="Layer 2"><g id="Layer_1-2" data-name="Layer 1"><path class="cls-1" d="M31,94.49q-9.93,0-16.89-3.44A22.75,22.75,0,0,1,3.58,80.32Q0,73,0,61.56V32.93Q0,21.47,3.58,14.17A22.75,22.75,0,0,1,14.13,3.44Q21.09,0,31,0V8.4q-10.87.09-16.18,6.16T9.54,33.31V61.18q0,12.69,5.3,18.76T31,86.09Z"/><path class="cls-1" d="M45.81,78.27a19,19,0,0,1-9.54-2.39,16.88,16.88,0,0,1-6.59-6.78A21.66,21.66,0,0,1,27.3,58.6V30.35h9.83V57.94q0,6.11,3,9t8.5,2.91a12.48,12.48,0,0,0,9.69-4.06Q62,61.76,62,54.12V30.35h9.83V77.41H62.23V70.34H60.7a14.62,14.62,0,0,1-4.77,5.4Q52.5,78.26,45.81,78.27Z"/><path class="cls-1" d="M86.38,77.41V30.35H96v7.06h1.53a14.33,14.33,0,0,1,4.77-5.34q3.44-2.47,10.21-2.48A18.74,18.74,0,0,1,122,32a17.19,17.19,0,0,1,6.53,6.73A21.43,21.43,0,0,1,131,49.15V77.41h-9.83V49.92q0-6.11-3.05-9T109.67,38a12.61,12.61,0,0,0-9.79,4q-3.67,4-3.67,11.64V77.41Z"/><path class="cls-1" d="M161.4,77.41a9.13,9.13,0,0,1-6.83-2.58A9.42,9.42,0,0,1,152,68V38.66h-13V30.35h13V14.79h9.84V30.35h14v8.31h-14V66.24c0,1.91.89,2.86,2.67,2.86h9.83v8.31Z"/><path class="cls-1" d="M192.42,24a6.72,6.72,0,0,1-4.82-1.86,6.35,6.35,0,0,1-2-4.82,6.32,6.32,0,0,1,2-4.82,7.2,7.2,0,0,1,9.68,0,6.39,6.39,0,0,1,1.91,4.82,6.43,6.43,0,0,1-1.91,4.82A6.67,6.67,0,0,1,192.42,24Zm-5,53.45V30.35h9.83V77.41Z"/><path class="cls-1" d="M229.54,77.41a9.12,9.12,0,0,1-6.82-2.58A9.37,9.37,0,0,1,220.19,68V38.66h-13V30.35h13V14.79H230V30.35h14v8.31H230V66.24c0,1.91.89,2.86,2.67,2.86h9.84v8.31Z"/><path class="cls-1" d="M255.6,77.41V14.79h9.83V77.41Z"/><path class="cls-1" d="M297.18,78.74a21.06,21.06,0,0,1-18.75-11.12,26.29,26.29,0,0,1-3-13V53.16a26.85,26.85,0,0,1,3-13,20.8,20.8,0,0,1,7.92-8.3A21.36,21.36,0,0,1,297.18,29a22.37,22.37,0,0,1,7.68,1.14A16,16,0,0,1,310,33.07,14,14,0,0,1,313,36.75h1.52v-22h9.83V77.41h-9.64V70.72h-1.52a17.71,17.71,0,0,1-5.49,5.54Q304.05,78.73,297.18,78.74ZM300,70.15a14.38,14.38,0,0,0,10.55-4.1q4.14-4.11,4.15-11.74v-.86q0-7.55-4.11-11.64a15.52,15.52,0,0,0-21,0q-4.15,4.09-4.15,11.64v.86q0,7.63,4.15,11.74A14.24,14.24,0,0,0,300,70.15Z"/><path class="cls-1" d="M328.64,94.49v-8.4Q339.71,86,345,79.94t5.25-18.76V33.31q0-12.69-5.25-18.75T328.64,8.4V0q10,0,16.94,3.44a22.74,22.74,0,0,1,10.5,10.73q3.59,7.3,3.58,18.76V61.56q0,11.46-3.58,18.76a22.74,22.74,0,0,1-10.5,10.73Q338.67,94.49,328.64,94.49Z"/><path class="cls-1" d="M373.92,50.35V44.24h7.83l6.68,1,.48-1.15-5.44-4-5.54-5.53,4.3-4.3,5.53,5.44,4,5.54,1.15-.48L391.87,34V26.3H398V34l-1.05,6.77,1.14.48,4-5.54,5.54-5.44,4.29,4.3-5.44,5.53-5.53,4,.47,1.15,6.68-1h7.83v6.11h-7.83l-6.68-1.05-.47,1.14,5.53,4L411.91,60l-4.29,4.29-5.54-5.53-4-5.54-1.14.48L398,60.46V68.2h-6.11V60.46l1.05-6.77-1.15-.48-4,5.54-5.53,5.53L377.93,60l5.54-5.54,5.44-4-.48-1.14-6.68,1.05Z"/></g></g></svg>