<?xml version="1.0" encoding="UTF-8"?>
<svg id="Layer_2" data-name="Layer 2" xmlns="http://www.w3.org/2000/svg" viewBox="0 0 415.92 94.49">
  <defs>
    <style>
      .cls-1 {
        fill: #000;
      }
    </style>
  </defs>
  <g id="Layer_1-2" data-name="Layer 1">
    <g>
      <path class="cls-1" d="m31.02,94.49c-6.62,0-12.25-1.15-16.89-3.44-4.64-2.29-8.16-5.87-10.55-10.74-2.39-4.87-3.58-11.12-3.58-18.75v-28.63c0-7.64,1.19-13.89,3.58-18.76,2.39-4.87,5.9-8.45,10.55-10.74C18.77,1.14,24.4,0,31.02,0v8.4c-7.25.06-12.65,2.12-16.18,6.16-3.53,4.04-5.3,10.29-5.3,18.76v27.87c0,8.46,1.77,14.71,5.3,18.76,3.53,4.04,8.92,6.09,16.18,6.16v8.4Z"/>
      <path class="cls-1" d="m45.81,78.27c-3.56,0-6.75-.8-9.54-2.39-2.8-1.59-5-3.85-6.59-6.78-1.59-2.93-2.39-6.43-2.39-10.5v-28.25h9.83v27.58c0,4.07,1.02,7.08,3.05,9.02,2.04,1.94,4.87,2.91,8.49,2.91,4.01,0,7.24-1.35,9.69-4.06,2.45-2.7,3.67-6.6,3.67-11.69v-23.77h9.83v47.05h-9.64v-7.06h-1.53c-.89,1.91-2.48,3.71-4.77,5.39-2.29,1.68-5.66,2.53-10.12,2.53Z"/>
      <path class="cls-1" d="m86.38,77.41V30.35h9.64v7.06h1.53c.89-1.91,2.48-3.69,4.77-5.34,2.29-1.65,5.69-2.48,10.21-2.48,3.56,0,6.73.8,9.5,2.39,2.77,1.59,4.95,3.83,6.54,6.73,1.59,2.9,2.39,6.38,2.39,10.45v28.25h-9.83v-27.49c0-4.07-1.02-7.08-3.05-9.02-2.04-1.94-4.84-2.91-8.4-2.91-4.07,0-7.33,1.34-9.78,4.01-2.45,2.67-3.67,6.55-3.67,11.64v23.77h-9.83Z"/>
      <path class="cls-1" d="m161.4,77.41c-2.86,0-5.14-.86-6.82-2.58-1.69-1.72-2.53-4.01-2.53-6.87v-29.3h-12.98v-8.3h12.98v-15.56h9.83v15.56h14.03v8.3h-14.03v27.58c0,1.91.89,2.86,2.67,2.86h9.83v8.3h-12.98Z"/>
      <path class="cls-1" d="m192.42,23.96c-1.91,0-3.52-.62-4.82-1.86-1.3-1.24-1.96-2.85-1.96-4.82s.65-3.58,1.96-4.82c1.3-1.24,2.91-1.86,4.82-1.86s3.59.62,4.87,1.86c1.27,1.24,1.91,2.85,1.91,4.82s-.64,3.58-1.91,4.82c-1.27,1.24-2.9,1.86-4.87,1.86Zm-4.96,53.45V30.35h9.83v47.05h-9.83Z"/>
      <path class="cls-1" d="m229.54,77.41c-2.86,0-5.14-.86-6.82-2.58-1.69-1.72-2.53-4.01-2.53-6.87v-29.3h-12.98v-8.3h12.98v-15.56h9.83v15.56h14.03v8.3h-14.03v27.58c0,1.91.89,2.86,2.67,2.86h9.83v8.3h-12.98Z"/>
      <path class="cls-1" d="m255.6,77.41V14.79h9.83v62.61h-9.83Z"/>
      <path class="cls-1" d="m297.18,78.74c-3.88,0-7.48-.95-10.78-2.86-3.31-1.91-5.97-4.66-7.97-8.26-2-3.59-3.01-7.94-3.01-13.03v-1.43c0-5.03.99-9.35,2.96-12.98,1.97-3.63,4.61-6.39,7.92-8.3,3.31-1.91,6.93-2.86,10.88-2.86,3.06,0,5.61.38,7.68,1.15,2.07.76,3.77,1.73,5.11,2.91,1.34,1.18,2.35,2.4,3.06,3.67h1.53V14.79h9.83v62.61h-9.64v-6.68h-1.53c-1.21,2.04-3.04,3.88-5.49,5.54-2.45,1.65-5.97,2.48-10.55,2.48Zm2.77-8.59c4.26,0,7.78-1.37,10.55-4.1,2.77-2.73,4.15-6.65,4.15-11.74v-.86c0-5.03-1.37-8.91-4.1-11.64-2.74-2.74-6.27-4.1-10.59-4.1s-7.68,1.37-10.45,4.1c-2.77,2.74-4.15,6.62-4.15,11.64v.86c0,5.09,1.38,9,4.15,11.74,2.77,2.74,6.25,4.1,10.45,4.1Z"/>
      <path class="cls-1" d="m328.64,94.49v-8.4c7.38-.06,12.82-2.12,16.32-6.16,3.5-4.04,5.25-10.29,5.25-18.76v-27.87c0-8.46-1.75-14.71-5.25-18.76-3.5-4.04-8.94-6.09-16.32-6.16V0c6.68,0,12.33,1.14,16.94,3.44,4.61,2.29,8.11,5.87,10.5,10.74,2.39,4.87,3.58,11.12,3.58,18.76v28.63c0,7.64-1.19,13.89-3.58,18.75-2.39,4.87-5.89,8.45-10.5,10.74-4.61,2.29-10.26,3.44-16.94,3.44Z"/>
      <polygon class="cls-1" points="402.13 58.78 407.61 64.26 411.93 59.93 406.46 54.45 400.93 50.41 401.4 49.26 408.18 50.31 415.92 50.31 415.92 44.18 408.18 44.18 401.4 45.24 400.93 44.09 406.46 40.04 411.93 34.56 407.61 30.23 402.13 35.71 398.08 41.24 396.94 40.77 397.98 33.99 397.98 26.25 391.86 26.25 391.86 33.99 392.91 40.77 391.76 41.24 387.72 35.71 382.24 30.23 377.91 34.56 383.39 40.04 388.92 44.08 388.44 45.23 381.67 44.18 373.92 44.18 373.92 50.31 381.67 50.31 388.44 49.26 388.92 50.4 383.39 54.45 377.91 59.93 382.24 64.26 387.72 58.78 391.76 53.25 392.91 53.72 391.86 60.5 391.86 68.24 397.98 68.24 397.98 60.5 396.93 53.72 398.08 53.25 402.13 58.78"/>
    </g>
  </g>
</svg>